<svg xmlns="http://www.w3.org/2000/svg" viewBox="0 0 100 100" width="100%" height="100%" style="max-width: 400px; background-color: #a0d4f0;">
  
  <rect x="35" y="10" width="30" height="5" fill="#2c1e16" />
  <rect x="30" y="15" width="40" height="10" fill="#2c1e16" />

  <rect x="17" y="43" width="4" height="12" fill="#f5cba7" />
  <rect x="15" y="35" width="8" height="8" fill="#f5cba7" />
  <rect x="15" y="31" width="2" height="4" fill="#f5cba7" />
  <rect x="19" y="31" width="2" height="4" fill="#f5cba7" />

  <rect x="79" y="43" width="4" height="12" fill="#f5cba7" />
  <rect x="77" y="35" width="8" height="8" fill="#f5cba7" />
  <rect x="78" y="29" width="6" height="10" fill="#222222" />
  <rect x="79" y="30" width="4" height="8" fill="#444444" />

  <rect x="35" y="25" width="30" height="25" fill="#f5cba7" />

  <rect x="25" y="25" width="10" height="35" fill="#2c1e16" />
  <rect x="65" y="25" width="10" height="35" fill="#2c1e16" />

  <rect x="35" y="32" width="12" height="2" fill="#444444" />
  <rect x="35" y="40" width="12" height="2" fill="#444444" />
  <rect x="35" y="32" width="2" height="10" fill="#444444" />
  <rect x="45" y="32" width="2" height="10" fill="#444444" />
  <rect x="53" y="32" width="12" height="2" fill="#444444" />
  <rect x="53" y="40" width="12" height="2" fill="#444444" />
  <rect x="53" y="32" width="2" height="10" fill="#444444" />
  <rect x="63" y="32" width="2" height="10" fill="#444444" />
  <rect x="47" y="34" width="6" height="2" fill="#444444" />
  <rect x="39" y="35" width="4" height="4" fill="#000000" />
  <rect x="57" y="35" width="4" height="4" fill="#000000" />

  <rect x="43" y="45" width="14" height="3" fill="#000000" />
  <rect x="44" y="46" width="12" height="1" fill="#ffffff" />

  <rect x="20" y="50" width="60" height="25" fill="#151515" />

  <rect x="25" y="50" width="10" height="15" fill="#2c1e16" />
  <rect x="65" y="50" width="10" height="15" fill="#2c1e16" />

  <rect x="30" y="75" width="40" height="10" fill="#000000" />
  <rect x="47" y="75" width="2" height="4" fill="#2a2a2a" />
  <rect x="51" y="75" width="2" height="4" fill="#2a2a2a" />

  <rect x="35" y="85" width="10" height="4" fill="#f5cba7" />
  <rect x="55" y="85" width="10" height="4" fill="#f5cba7" />

  <rect x="35" y="89" width="10" height="6" fill="#ffffff" />
  <rect x="55" y="89" width="10" height="6" fill="#ffffff" />
  <rect x="35" y="90" width="10" height="2" fill="#888888" />
  <rect x="55" y="90" width="10" height="2" fill="#888888" />

  <rect x="33" y="95" width="14" height="5" fill="#eeeeee" />
  <rect x="53" y="95" width="14" height="5" fill="#eeeeee" />

</svg>
